<svg xmlns="http://www.w3.org/2000/svg" version="1.1" xmlns:xlink="http://www.w3.org/1999/xlink" xmlns:svgjs="http://svgjs.com/svgjs" width="512" height="512" x="0" y="0" viewBox="0 0 512 512" style="enable-background:new 0 0 512 512" xml:space="preserve" class=""><g><path d="m509.781 442.52-77.867-77.872a7.575 7.575 0 0 0-10.71 0 7.573 7.573 0 0 0 0 10.715l72.51 72.512-45.839 45.84-120.57-120.57 45.84-45.84 22.918 22.918a7.575 7.575 0 1 0 10.715-10.71l-54.536-54.533a7.575 7.575 0 0 0-10.71 0l-4.743 4.743-26.879-26.875c17.926-26.844 28.395-59.067 28.395-93.696C338.305 75.882 262.422 0 169.152 0 118.141 0 70.36 22.687 38.062 62.246a7.573 7.573 0 0 0 1.079 10.656 7.573 7.573 0 0 0 10.656-1.078c29.406-36.02 72.91-56.676 119.355-56.676 84.918 0 154.004 69.086 154.004 154.004 0 84.918-69.086 154.004-154.004 154.004-84.918 0-154.004-69.086-154.004-154.004 0-23.882 5.317-46.765 15.797-68.023a7.576 7.576 0 0 0-3.441-10.145 7.578 7.578 0 0 0-10.145 3.446C5.84 117.785 0 142.926 0 169.152c0 93.27 75.883 169.153 169.152 169.153 34.625 0 66.852-10.465 93.696-28.39l26.875 26.874-4.743 4.742a7.573 7.573 0 0 0 0 10.715l157.536 157.535A7.548 7.548 0 0 0 447.87 512a7.55 7.55 0 0 0 5.36-2.219l56.55-56.55a7.575 7.575 0 0 0 0-10.711zm-234.59-141.684a170.792 170.792 0 0 0 25.645-25.645l25.242 25.243-25.644 25.644zm71.696.21 15.547 15.544-45.84 45.844-15.547-15.547zm0 0" data-original="#000000" class=""></path><path d="M169.152 51.504c23.11 0 45.489 6.723 64.723 19.445a7.574 7.574 0 1 0 8.355-12.633c-21.718-14.367-46.992-21.96-73.078-21.96-73.222 0-132.797 59.57-132.797 132.796 0 73.227 59.57 132.797 132.797 132.797S301.95 242.38 301.95 169.152c0-31.53-11.289-62.113-31.785-86.12a7.574 7.574 0 1 0-11.52 9.835c18.157 21.266 28.157 48.36 28.157 76.285 0 64.871-52.778 117.649-117.649 117.649S51.504 234.023 51.504 169.152 104.28 51.504 169.152 51.504zm0 0" data-original="#000000" class=""></path></g></svg>